# xmcd CD database file
#
# Track frame offsets:
#	150
#	20190
#	38699
#	59735
#	82303
#	101649
#	122156
#	145186
#	165820
#	183498
#	199324
#	225751
#
# Disc length: 3335 seconds
#
# Revision: 15
# Processed by: cddbd v1.5.2PL0 Copyright (c) Steve Scherf et al.
# Submitted via: CDex 1.70beta2
#
DISCID=a30d050c
DTITLE=スガ　シカオ - PARADE
DYEAR=2006
DGENRE=JPop
TTITLE0=奇跡
TTITLE1=19才
TTITLE2=38分15秒
TTITLE3=斜陽
TTITLE4=夏陰 ～なつかげ～
TTITLE5=タイムマシーン
TTITLE6=Rush
TTITLE7=Hop Step Dive
TTITLE8=真夏の夜のユメ
TTITLE9=7月7日
TTITLE10=午後のパレード-additional track-
TTITLE11=Progress ＜Family Sugar Version＞
EXTD=E10=午後のパレード午後のパレード蜊亥セ後・繝代Ξ繝シ繝・TTITLE11=Progress ・廡amily Sugar Version・・EXTD=YEAR: 2006
EXTT0=
EXTT1=
EXTT2=
EXTT3=
EXTT4=
EXTT5=
EXTT6=
EXTT7=
EXTT8=
EXTT9=
EXTT10=
EXTT11=
PLAYORDER=
